<?xml version="1.0" encoding="UTF-8"?>
<svg xmlns="http://www.w3.org/2000/svg" viewBox="0 0 1200 600" font-family="'Work Sans', system-ui, sans-serif">
  <!-- Background -->
  <rect width="1200" height="600" fill="#1E2426"/>

  <!-- Header bar -->
  <rect x="0" y="0" width="1200" height="40" fill="#1E2426" stroke="#FFFFFF22" stroke-width="0.5"/>
  <text x="24" y="26" fill="#E7FF00" font-size="14" font-weight="600">t1</text>
  <text x="38" y="26" fill="#FFFFFF" font-size="14" font-weight="600">-cve-enricher</text>
  <text x="180" y="25" fill="#FFFFFF66" font-size="10" letter-spacing="2">CONTROL OVER CHAOS</text>

  <!-- Severity chart placeholder -->
  <text x="24" y="80" fill="#FFFFFF99" font-size="11" letter-spacing="2">SEVERITY DISTRIBUTION</text>
  <text x="1140" y="80" fill="#FFFFFF66" font-size="11" text-anchor="end">3,481 findings in view</text>

  <rect x="80"  y="95" width="60" height="80" fill="#FF8837" rx="3"/>
  <rect x="180" y="115" width="60" height="60" fill="#E7FF00" rx="3"/>
  <rect x="280" y="105" width="60" height="70" fill="#4EA5FF" rx="3"/>
  <rect x="380" y="135" width="60" height="40" fill="#71FFC6" rx="3"/>
  <rect x="480" y="155" width="60" height="20" fill="#44494B" rx="3"/>

  <text x="110" y="190" fill="#FFFFFFCC" font-size="11" text-anchor="middle">Critical</text>
  <text x="210" y="190" fill="#FFFFFFCC" font-size="11" text-anchor="middle">High</text>
  <text x="310" y="190" fill="#FFFFFFCC" font-size="11" text-anchor="middle">Medium</text>
  <text x="410" y="190" fill="#FFFFFFCC" font-size="11" text-anchor="middle">Low</text>
  <text x="510" y="190" fill="#FFFFFFCC" font-size="11" text-anchor="middle">Info</text>

  <!-- Filter pills -->
  <rect x="24" y="220" width="1152" height="40" fill="#FFFFFF08" rx="6" stroke="#FFFFFF15" stroke-width="0.5"/>
  <rect x="40" y="232" width="160" height="20" fill="#FFFFFF10" stroke="#FFFFFF20" rx="4"/>
  <text x="50" y="246" fill="#FFFFFF66" font-size="10">Search asset…</text>

  <rect x="220" y="232" width="120" height="20" fill="#FFFFFF10" stroke="#FFFFFF20" rx="4"/>
  <text x="230" y="246" fill="#FFFFFF66" font-size="10">CVE-2024-…</text>

  <rect x="360" y="232" width="80" height="20" rx="10" fill="#E7FF00"/>
  <text x="400" y="246" fill="#1E2426" font-size="10" text-anchor="middle" font-weight="600">CrowdStrike</text>

  <rect x="450" y="232" width="80" height="20" rx="10" stroke="#FFFFFF30" fill="none"/>
  <text x="490" y="246" fill="#FFFFFF99" font-size="10" text-anchor="middle">SentinelOne</text>

  <rect x="540" y="232" width="50" height="20" rx="10" stroke="#FFFFFF30" fill="none"/>
  <text x="565" y="246" fill="#FFFFFF99" font-size="10" text-anchor="middle">Wiz</text>

  <rect x="610" y="234" width="60" height="16" fill="#FF8837" rx="3"/>
  <text x="640" y="246" fill="#1E2426" font-size="9" text-anchor="middle" font-weight="600">CRITICAL</text>

  <rect x="680" y="234" width="48" height="16" fill="#E7FF00" rx="3"/>
  <text x="704" y="246" fill="#1E2426" font-size="9" text-anchor="middle" font-weight="600">HIGH</text>

  <!-- Table -->
  <rect x="24" y="280" width="1152" height="290" fill="#FFFFFF05" rx="8" stroke="#FFFFFF10"/>
  <!-- Table header -->
  <rect x="24" y="280" width="1152" height="32" fill="#FFFFFF08" rx="8"/>
  <text x="48"  y="300" fill="#FFFFFF99" font-size="10" letter-spacing="1.5">SEVERITY</text>
  <text x="160" y="300" fill="#FFFFFF99" font-size="10" letter-spacing="1.5">CVE</text>
  <text x="320" y="300" fill="#FFFFFF99" font-size="10" letter-spacing="1.5">ASSET</text>
  <text x="560" y="300" fill="#FFFFFF99" font-size="10" letter-spacing="1.5">SOURCE</text>
  <text x="700" y="300" fill="#FFFFFF99" font-size="10" letter-spacing="1.5">VPR</text>
  <text x="760" y="300" fill="#FFFFFF99" font-size="10" letter-spacing="1.5">CVSSv3</text>
  <text x="840" y="300" fill="#FFFFFF99" font-size="10" letter-spacing="1.5">REMEDIATION</text>

  <!-- Table rows -->
  <g font-size="12" fill="#FFFFFF">
    <rect x="40" y="320" width="64" height="18" fill="#FF8837" rx="3"/>
    <text x="72" y="333" fill="#1E2426" font-size="10" text-anchor="middle" font-weight="600">CRITICAL</text>
    <text x="160" y="334" fill="#E7FF00" font-family="monospace">CVE-2024-3094</text>
    <text x="320" y="334">prod-db-07.corp</text>
    <text x="560" y="334" fill="#FFFFFFCC">CrowdStrike</text>
    <text x="700" y="334">9.8</text>
    <text x="760" y="334">10.0</text>
    <text x="840" y="334" fill="#FFFFFFCC">Apply vendor patch; remove backdoored xz-utils 5.6.0/5.6.1…</text>

    <line x1="32" y1="350" x2="1168" y2="350" stroke="#FFFFFF10"/>

    <rect x="40" y="362" width="44" height="18" fill="#E7FF00" rx="3"/>
    <text x="62" y="375" fill="#1E2426" font-size="10" text-anchor="middle" font-weight="600">HIGH</text>
    <text x="160" y="376" fill="#E7FF00" font-family="monospace">CVE-2023-4863</text>
    <text x="320" y="376">analyst-mac-12.corp</text>
    <text x="560" y="376" fill="#FFFFFFCC">SentinelOne</text>
    <text x="700" y="376">8.4</text>
    <text x="760" y="376">8.8</text>
    <text x="840" y="376" fill="#FF8837" font-size="10" letter-spacing="1.5">NOT ENRICHED</text>

    <line x1="32" y1="392" x2="1168" y2="392" stroke="#FFFFFF10"/>

    <rect x="40" y="404" width="60" height="18" fill="#4EA5FF" rx="3"/>
    <text x="70" y="417" fill="#1E2426" font-size="10" text-anchor="middle" font-weight="600">MEDIUM</text>
    <text x="160" y="418" fill="#E7FF00" font-family="monospace">CVE-2024-21413</text>
    <text x="320" y="418">finance-vm-03.corp</text>
    <text x="560" y="418" fill="#FFFFFFCC">Wiz</text>
    <text x="700" y="418">6.2</text>
    <text x="760" y="418">9.8</text>
    <text x="840" y="418" fill="#FFFFFFCC">Install KB5034765 or later cumulative update…</text>

    <line x1="32" y1="434" x2="1168" y2="434" stroke="#FFFFFF10"/>

    <rect x="40" y="446" width="44" height="18" fill="#71FFC6" rx="3"/>
    <text x="62" y="459" fill="#1E2426" font-size="10" text-anchor="middle" font-weight="600">LOW</text>
    <text x="160" y="460" fill="#E7FF00" font-family="monospace">CVE-2024-0985</text>
    <text x="320" y="460">dev-jenkins.corp</text>
    <text x="560" y="460" fill="#FFFFFFCC">CrowdStrike</text>
    <text x="700" y="460">3.1</text>
    <text x="760" y="460">4.3</text>
    <text x="840" y="460" fill="#FFFFFFCC">Upgrade PostgreSQL to 16.2 / 15.6 / 14.11…</text>
  </g>

  <!-- Footer -->
  <text x="24" y="560" fill="#FFFFFF40" font-size="10">
    Showing 4 of 3,481 findings · enrichment cached locally · scrapes tenable.com/cve/{ID}
  </text>

  <!-- Watermark -->
  <text x="1176" y="595" fill="#FFFFFF20" font-size="9" text-anchor="end">
    Placeholder — replace with actual screenshot once running
  </text>
</svg>
